<svg width="16" height="16" viewBox="0 0 16 16" fill="none" xmlns="http://www.w3.org/2000/svg">
<rect width="16" height="16" fill="white"/>
<g clip-path="url(#clip0_49_6)">
<path d="M10.2501 10.145C10.1762 9.92333 10.091 9.70555 9.99506 9.4925V9.4475H10.0626C10.7405 9.18301 11.3268 8.72697 11.7501 8.135C12.1837 7.48909 12.4016 6.72243 12.3726 5.945C12.3894 5.2291 12.2132 4.52187 11.8626 3.8975C11.5168 3.29369 11.0001 2.8057 10.3776 2.495C9.72284 2.15442 8.9929 1.98418 8.25506 2H3.37256V13.8275H5.62256V9.8525H7.62506C7.75063 9.87768 7.86845 9.93227 7.96884 10.0118C8.06922 10.0913 8.14932 10.1935 8.20256 10.31C8.26256 10.4525 8.33006 10.6325 8.39756 10.82C8.81006 11.93 9.57506 14 12.6276 14V12.05C10.9326 12.05 10.6251 11.21 10.2276 10.145H10.2501ZM5.65256 4.0625H8.07506C8.42066 4.05774 8.76247 4.13484 9.07256 4.2875C9.35723 4.43257 9.59416 4.65647 9.75506 4.9325C9.92703 5.23619 10.0126 5.58115 10.0026 5.93C10.0079 6.27503 9.9253 6.61573 9.76256 6.92C9.60426 7.2082 9.36416 7.44307 9.07256 7.595C8.757 7.76438 8.40313 7.84962 8.04506 7.8425H5.65256V4.0625Z" fill="#1F262D"/>
</g>
<defs>
<clipPath id="clip0_49_6">
<rect width="12" height="12" fill="white" transform="translate(2 2)"/>
</clipPath>
</defs>
</svg>
