<svg id="Layer_1" data-name="Layer 1" xmlns="http://www.w3.org/2000/svg" xmlns:xlink="http://www.w3.org/1999/xlink" viewBox="0 0 16 16"><defs><style>.cls-1{fill:none;}.cls-2{clip-path:url(#clip-path);}.cls-3{fill:#1f262d;}</style><clipPath id="clip-path"><rect class="cls-1" width="16" height="16"/></clipPath></defs><title>Rifyo_Favicon 16</title><g class="cls-2"><path class="cls-3" d="M11,10.86a9.21,9.21,0,0,0-.34-.87l0-.06.09,0a5,5,0,0,0,2.25-1.75,4.91,4.91,0,0,0,.83-2.92,5.32,5.32,0,0,0-.68-2.73A4.7,4.7,0,0,0,11.17.66,5.86,5.86,0,0,0,8.34,0H1.83V15.77h3v-5.3H7.5a1.08,1.08,0,0,1,.77.61c.08.19.17.43.26.68C9.08,13.24,10.1,16,14.17,16V13.4c-2.26,0-2.67-1.12-3.2-2.54M4.87,2.75H8.1a2.92,2.92,0,0,1,1.33.3,2.22,2.22,0,0,1,.91.86,2.55,2.55,0,0,1,.33,1.33,2.71,2.71,0,0,1-.32,1.32,2.22,2.22,0,0,1-.92.9,2.78,2.78,0,0,1-1.37.33H4.87Z"/></g></svg>