<svg id="Layer_1" data-name="Layer 1" xmlns="http://www.w3.org/2000/svg" xmlns:xlink="http://www.w3.org/1999/xlink" viewBox="0 0 512 512"><defs><style>.cls-1{fill:none;}.cls-2{clip-path:url(#clip-path);}.cls-3{fill:#1f262d;}</style><clipPath id="clip-path"><rect class="cls-1" width="512" height="512"/></clipPath></defs><title>Rifyo_Favicon 512</title><g class="cls-2"><path class="cls-3" d="M351.11,347.52c-3.39-9.25-6.95-18.79-11-27.68-.35-.71-.74-1.35-1.09-2.08.93-.36,1.92-.61,2.85-1q45.08-18.35,71.81-56t26.78-93.37q0-49.59-21.92-87.46a152.13,152.13,0,0,0-61-58.91Q318.3,0,267,0H58.63V504.64H156V335.1H240.1c17.47,4.9,22.11,14.62,24.38,19.55,2.76,6,5.57,13.6,8.58,21.73C290.56,423.77,323.17,512,453.38,512V428.76c-72.22,0-85.47-35.84-102.27-81.24M156,88H259q23.71,0,42.56,9.69a70.41,70.41,0,0,1,29.28,27.49q10.42,17.76,10.44,42.56,0,23.72-10.24,42.21a72.35,72.35,0,0,1-29.28,28.89Q282.73,249.27,258,249.28H226.56c-4-.26-7.84-.39-11.36-.39h-39v.39H156Z"/></g></svg>