<?xml version="1.0" standalone="no"?>
<!DOCTYPE svg PUBLIC "-//W3C//DTD SVG 20010904//EN"
 "http://www.w3.org/TR/2001/REC-SVG-20010904/DTD/svg10.dtd">
<svg version="1.0" xmlns="http://www.w3.org/2000/svg"
 width="700.000000pt" height="700.000000pt" viewBox="0 0 700.000000 700.000000"
 preserveAspectRatio="xMidYMid meet">
<metadata>
Created by potrace 1.14, written by Peter Selinger 2001-2017
</metadata>
<g transform="translate(0.000000,700.000000) scale(0.100000,-0.100000)"
fill="#000000" stroke="none">
<path d="M805 6988 c-3 -7 -4 -1559 -2 -3448 l2 -3435 653 -3 652 -2 1 22 c0
13 1 534 2 1158 l2 1135 605 0 605 0 57 -28 c136 -67 206 -152 276 -337 169
-445 214 -555 292 -715 49 -99 103 -202 121 -230 17 -27 44 -68 58 -90 302
-467 750 -786 1300 -925 64 -16 145 -34 181 -39 36 -6 75 -13 88 -16 13 -2 51
-7 85 -11 34 -3 76 -8 92 -10 17 -2 96 -6 178 -9 l147 -6 0 570 0 571 -67 1
c-395 4 -694 105 -897 303 -81 79 -122 131 -188 241 -80 133 -233 488 -242
564 -5 36 -57 180 -115 320 -17 40 -29 77 -26 81 3 4 15 8 27 8 30 0 192 73
293 132 22 13 49 28 60 34 192 109 441 333 598 538 162 214 323 576 364 823 3
17 6 35 8 40 2 10 8 42 21 115 13 73 12 593 -1 690 -59 421 -193 764 -416
1065 -37 50 -78 102 -91 116 -12 14 -37 41 -54 60 -63 70 -188 182 -281 251
-307 227 -776 415 -1138 454 -33 3 -80 10 -105 14 -25 5 -741 9 -1593 10
-1246 0 -1548 -2 -1552 -12z m2964 -1207 c148 -26 307 -84 432 -158 63 -38
224 -188 271 -253 67 -93 155 -296 173 -397 32 -186 29 -402 -9 -558 -28 -119
-83 -247 -151 -350 -50 -78 -183 -225 -203 -225 -6 0 -12 -4 -14 -8 -6 -15
-98 -73 -178 -113 -80 -39 -157 -68 -240 -90 -49 -12 -58 -14 -145 -28 -33 -5
-400 -10 -817 -10 l-758 -1 0 1103 0 1103 783 -1 c579 -1 801 -5 856 -14z"/>
</g>
</svg>
